<svg xmlns="http://www.w3.org/2000/svg" xmlns:xlink="http://www.w3.org/1999/xlink" width="700" zoomAndPan="magnify" viewBox="0 0 525 525.000007" height="700" preserveAspectRatio="xMidYMid meet" version="1.0"><defs><clipPath id="024c063103"><path d="M 95.125 49.796875 L 263 49.796875 L 263 250 L 95.125 250 Z M 95.125 49.796875 " clip-rule="nonzero"/></clipPath><clipPath id="c7de6b3e9e"><path d="M 95.125 216 L 258 216 L 258 474.238281 L 95.125 474.238281 Z M 95.125 216 " clip-rule="nonzero"/></clipPath><clipPath id="2b3b00dfde"><path d="M 262 49.796875 L 429.738281 49.796875 L 429.738281 250 L 262 250 Z M 262 49.796875 " clip-rule="nonzero"/></clipPath><clipPath id="cebf74d192"><path d="M 267 216 L 429.738281 216 L 429.738281 474.238281 L 267 474.238281 Z M 267 216 " clip-rule="nonzero"/></clipPath></defs><g clip-path="url(#024c063103)"><path fill="#143642" d="M 201.257812 249.125 C 194.136719 237.910156 190.003906 224.617188 190.003906 210.351562 C 190.003906 170.328125 222.449219 137.890625 262.46875 137.890625 L 262.46875 49.792969 C 173.75 49.792969 101.195312 118.921875 95.6875 206.242188 L 201.257812 249.125 " fill-opacity="1" fill-rule="nonzero"/></g><g clip-path="url(#c7de6b3e9e)"><path fill="#dad2d8" d="M 257.03125 474.210938 L 257.03125 282.605469 C 241.464844 281.453125 227.273438 275.378906 215.988281 265.933594 L 95.332031 216.929688 C 95.332031 306.789062 189.800781 375.007812 257.03125 474.210938 " fill-opacity="1" fill-rule="nonzero"/></g><g clip-path="url(#2b3b00dfde)"><path fill="#a8201a" d="M 334.929688 210.351562 C 334.929688 224.617188 330.800781 237.910156 323.675781 249.125 L 429.25 206.242188 C 423.734375 118.921875 351.183594 49.792969 262.46875 49.792969 L 262.46875 137.890625 C 302.488281 137.890625 334.929688 170.328125 334.929688 210.351562 " fill-opacity="1" fill-rule="nonzero"/></g><g clip-path="url(#cebf74d192)"><path fill="#ec9a29" d="M 267.902344 282.605469 L 267.902344 474.210938 C 335.136719 375.007812 429.605469 306.789062 429.605469 216.929688 L 308.941406 265.933594 C 297.660156 275.378906 283.46875 281.453125 267.902344 282.605469 " fill-opacity="1" fill-rule="nonzero"/></g></svg>