<svg xmlns="http://www.w3.org/2000/svg" xmlns:xlink="http://www.w3.org/1999/xlink" width="700" zoomAndPan="magnify" viewBox="0 0 525 525.000007" height="700" preserveAspectRatio="xMidYMid meet" version="1.0"><defs><clipPath id="ae6e63fbc6"><path d="M 114.128906 10 L 410.558594 10 L 410.558594 479 L 114.128906 479 Z M 114.128906 10 " clip-rule="nonzero"/></clipPath></defs><path fill="#f9a72b" d="M 329.585938 485.632812 C 329.585938 501.28125 299.886719 513.964844 263.25 513.964844 C 226.613281 513.964844 196.914062 501.28125 196.914062 485.632812 C 196.914062 469.992188 226.613281 457.296875 263.25 457.296875 C 299.886719 457.296875 329.585938 469.992188 329.585938 485.632812 " fill-opacity="1" fill-rule="nonzero"/><path fill="#ec9a29" d="M 328.234375 478.773438 C 328.234375 494.421875 298.835938 507.109375 262.574219 507.109375 C 226.308594 507.109375 196.914062 494.421875 196.914062 478.773438 C 196.914062 463.125 226.308594 450.4375 262.574219 450.4375 C 298.835938 450.4375 328.234375 463.125 328.234375 478.773438 " fill-opacity="1" fill-rule="nonzero"/><g clip-path="url(#ae6e63fbc6)"><path fill="#a8201a" d="M 265.101562 10.03125 C 264.226562 10.03125 263.363281 10.085938 262.5 10.105469 C 261.628906 10.085938 260.761719 10.03125 259.890625 10.03125 C 179.351562 10.03125 114.054688 78.105469 114.054688 162.070312 C 114.054688 176.398438 119.609375 209.527344 127.957031 223.273438 L 262.5 478.773438 L 397.035156 223.273438 C 405.378906 209.527344 410.9375 176.398438 410.9375 162.070312 C 410.9375 78.105469 345.652344 10.03125 265.101562 10.03125 " fill-opacity="1" fill-rule="nonzero"/></g><path fill="#ffffff" d="M 343.039062 145.128906 C 343.039062 189.613281 306.976562 225.667969 262.5 225.667969 C 218.015625 225.667969 181.953125 189.613281 181.953125 145.128906 C 181.953125 100.644531 218.015625 64.589844 262.5 64.589844 C 306.976562 64.589844 343.039062 100.644531 343.039062 145.128906 " fill-opacity="1" fill-rule="nonzero"/></svg>